# xmcd
#
# Track frame offsets: 
#        150
#        14873
#        32098
#        51483
#        66895
#        82620
#        96518
#        109155
#        124025
#        139338
#        154220
#        168138
#
# Disc length: 2449 seconds
#
# Revision: 2
# Processed by: cddbd v1.5.2PL0 Copyright (c) Steve Scherf et al.
# Submitted via: ExactAudioCopy v0.90b4
#
DISCID=a4098f0c
DTITLE=Various Artist - OLON Single Top 100 Volume 369
DYEAR=2007
DGENRE=Pop
TTITLE0=Fio - Gimme Your Love
TTITLE1=Ilanois - Pouring Rain
TTITLE2=Bløf - Donker Hart
TTITLE3=Tiësto (Feat. BT) - Break My Fall
TTITLE4=Erik Hulzebosch - Geloof Me
TTITLE5=Wesley - Hallo Schat
TTITLE6=Helemaal Hollands - Wat Een Vrouw
TTITLE7=Tamara Tol - Hola
TTITLE8=Vinzzent - Een Zomer Lang Verliefd
TTITLE9=Dos Palomas Negras - Don't Wanna Go Home...
TTITLE10=DJ Patjoo.com - The Riddle
TTITLE11=Ronald Pijls - De Zon Gaat Weer Schijnen
EXTD=
EXTT0=
EXTT1=
EXTT2=
EXTT3=
EXTT4=
EXTT5=
EXTT6=
EXTT7=
EXTT8=
EXTT9=
EXTT10=
EXTT11=
PLAYORDER=
